<svg xmlns="http://www.w3.org/2000/svg" width="200" height="200" class="icon" viewBox="0 0 1024 1024"><path fill="#f1c356" d="M512 85.333c-174.933 0-320 149.334-320 328.534 0 157.866 238.933 448 302.933 524.8 8.534 8.533 21.334 8.533 29.867 0 64-76.8 302.933-366.934 302.933-524.8C832 234.667 691.2 85.333 512 85.333m25.6 456.534c-106.667 17.066-200.533-76.8-183.467-183.467 8.534-68.267 64-123.733 132.267-132.267 110.933-17.066 200.533 72.534 183.467 183.467-8.534 68.267-64 123.733-132.267 132.267"/></svg>