<?xml version="1.0" standalone="no"?><!DOCTYPE svg PUBLIC "-//W3C//DTD SVG 1.1//EN" "http://www.w3.org/Graphics/SVG/1.1/DTD/svg11.dtd"><svg t="1729675678082" class="icon" viewBox="0 0 1024 1024" version="1.1" xmlns="http://www.w3.org/2000/svg" p-id="2322" xmlns:xlink="http://www.w3.org/1999/xlink" width="200" height="200"><path d="M512 85.333333C337.066667 85.333333 192 234.666667 192 413.866667c0 157.866667 238.933333 448 302.933333 524.8 8.533333 8.533333 21.333333 8.533333 29.866667 0 64-76.8 302.933333-366.933333 302.933333-524.8C832 234.666667 691.2 85.333333 512 85.333333z m25.6 456.533334c-106.666667 17.066667-200.533333-76.8-183.466667-183.466667 8.533333-68.266667 64-123.733333 132.266667-132.266667 110.933333-17.066667 200.533333 72.533333 183.466667 183.466667-8.533333 68.266667-64 123.733333-132.266667 132.266667z" p-id="2323" fill="#f1c356"></path></svg>