<?xml version="1.0" standalone="no"?><!DOCTYPE svg PUBLIC "-//W3C//DTD SVG 1.1//EN" "http://www.w3.org/Graphics/SVG/1.1/DTD/svg11.dtd"><svg t="1729204367890" class="icon" viewBox="0 0 1024 1024" version="1.1" xmlns="http://www.w3.org/2000/svg" p-id="4559" xmlns:xlink="http://www.w3.org/1999/xlink" width="200" height="200"><path d="M764.928 420.864c5.12-7.68 3.584-18.944-3.584-24.576-7.68-6.144-19.456-4.096-25.6 3.584-1.024 1.024-102.4 116.736-223.744 116.736-116.736 0-223.744-116.736-224.256-117.76-6.144-6.656-18.944-7.68-25.6-1.536-7.68 6.144-8.704 17.92-1.536 24.576 1.536 2.56 24.064 26.624 58.88 52.736l-47.104 47.104c-6.656 6.656-6.656 16.896 0 24.064l1.024 1.024c1.536 3.584 6.144 5.12 11.264 5.12 5.12 0 9.216-1.536 12.8-5.12l50.176-50.176c25.6 16.896 53.76 31.744 83.456 41.984l-19.456 62.976c-2.56 9.216 2.56 18.944 11.776 22.016h6.144c8.704 0 15.36-5.12 16.896-13.824l19.456-62.976c14.336 2.56 29.696 4.096 46.08 4.096 15.36 0 30.72-1.536 46.08-4.096l19.456 62.464c1.536 7.68 10.24 13.824 17.92 13.824 1.536 0 3.584 0 4.096-1.024 9.216-2.56 15.36-11.776 12.8-21.504v-1.024l-19.456-62.464c29.696-10.24 57.344-24.064 83.456-41.984l49.664 49.664c3.584 3.584 8.704 5.12 12.8 5.12 5.12 0 9.216-1.536 12.8-5.12 6.656-6.656 7.68-17.92 1.024-24.576l-47.104-47.104c37.888-26.624 59.392-52.224 59.392-52.224" p-id="4560"></path></svg>