<svg xmlns="http://www.w3.org/2000/svg" width="200" height="200" class="icon" viewBox="0 0 1024 1024"><path d="M119.296 435.251c-12.39-12.288-17.92-26.47-16.742-42.496 0-17.305 6.758-30.822 20.326-40.653 113.408-92.518 242.842-138.7 388.3-138.7 145.409 0 274.842 46.233 388.25 138.7 12.288 8.602 19.712 22.119 22.17 40.653 0 16.026-6.144 30.208-18.432 42.496-24.73 22.221-49.306 23.45-73.984 3.738-91.238-75.213-197.222-112.845-318.003-112.845-122.061 0-227.994 37.632-318.003 112.845-24.679 20.94-49.306 19.712-73.933-3.738zm304.998 305.101c-8.652-8.704-11.724-19.712-9.267-33.28 2.458-14.848 8.704-24.678 18.535-29.594 51.712-25.907 102.912-25.907 153.395 0 12.288 4.916 19.763 14.797 22.17 29.594 1.28 12.288-3.073 23.347-12.903 33.229l-57.344 59.136a37.63 37.63 0 0 1-27.7 11.161 37.63 37.63 0 0 1-27.75-11.161zM278.221 594.227c-12.288-13.517-17.869-28.313-16.64-44.339 0-17.254 6.81-30.771 20.377-40.653 67.738-49.305 144.794-73.984 231.066-73.984 83.814 0 159.642 24.679 227.38 73.984 12.338 8.602 19.711 22.17 22.22 40.653 0 17.254-6.144 31.437-18.534 42.496v1.843c-22.119 22.221-46.183 23.45-72.09 3.738-46.797-34.509-100.454-51.712-160.82-51.712-60.415 0-113.97 17.203-160.87 51.712-25.856 19.712-49.92 18.483-72.09-3.738m597.555 97.434h-14.592v-34.1a51.71 51.71 0 0 0-51.61-51.763 51.71 51.71 0 0 0-51.558 51.764v34.099h-14.592a12.8 12.8 0 0 0-12.8 12.8v93.337c0 7.066 5.734 12.8 12.8 12.8h132.352a12.8 12.8 0 0 0 12.749-12.8v-93.337a12.8 12.8 0 0 0-12.8-12.8zm-59.034 61.9v20.378a1.69 1.69 0 0 1-1.638 1.69h-10.957a1.69 1.69 0 0 1-1.69-1.69v-20.377a15.872 15.872 0 1 1 14.337 0zm24.628-61.951h-63.54v-33.178c0-17.613 14.285-31.898 31.744-31.898 17.562 0 31.796 14.285 31.796 31.898v33.229z"/></svg>