<?xml version="1.0" standalone="no"?><!DOCTYPE svg PUBLIC "-//W3C//DTD SVG 1.1//EN" "http://www.w3.org/Graphics/SVG/1.1/DTD/svg11.dtd"><svg t="1729201956970" class="icon" viewBox="0 0 1024 1024" version="1.1" xmlns="http://www.w3.org/2000/svg" p-id="1506" xmlns:xlink="http://www.w3.org/1999/xlink" width="200" height="200"><path d="M119.296 435.2512c-12.3904-12.288-17.92-26.4704-16.7424-42.496 0-17.3056 6.7584-30.8224 20.3264-40.6528C236.288 259.584 365.7216 213.4016 511.1808 213.4016c145.408 0 274.8416 46.2336 388.2496 138.7008 12.288 8.6016 19.712 22.1184 22.1696 40.6528 0 16.0256-6.144 30.208-18.432 42.496-24.7296 22.2208-49.3056 23.4496-73.984 3.7376-91.2384-75.2128-197.2224-112.8448-318.0032-112.8448-122.0608 0-227.9936 37.632-318.0032 112.8448-24.6784 20.9408-49.3056 19.712-73.9328-3.7376z m304.9984 305.1008c-8.6528-8.704-11.7248-19.712-9.2672-33.28 2.4576-14.848 8.704-24.6784 18.5344-29.5936 51.712-25.9072 102.912-25.9072 153.3952 0 12.288 4.9152 19.7632 14.7968 22.1696 29.5936 1.28 12.288-3.072 23.3472-12.9024 33.2288l-57.344 59.136a37.632 37.632 0 0 1-27.6992 11.1616 37.632 37.632 0 0 1-27.7504-11.1616L424.2944 740.352z m-146.0736-146.1248c-12.288-13.5168-17.8688-28.3136-16.64-44.3392 0-17.2544 6.8096-30.7712 20.3776-40.6528 67.7376-49.3056 144.7936-73.984 231.0656-73.984 83.8144 0 159.6416 24.6784 227.3792 73.984 12.3392 8.6016 19.712 22.1696 22.2208 40.6528 0 17.2544-6.144 31.4368-18.5344 42.496v1.8432c-22.1184 22.2208-46.1824 23.4496-72.0896 3.7376-46.7968-34.5088-100.4544-51.712-160.8192-51.712-60.416 0-113.9712 17.2032-160.8704 51.712-25.856 19.712-49.92 18.4832-72.0896-3.7376zM875.776 691.6608h-14.592v-34.0992a51.712 51.712 0 0 0-51.6096-51.7632 51.712 51.712 0 0 0-51.5584 51.7632v34.0992h-14.592a12.8 12.8 0 0 0-12.8 12.8v93.3376c0 7.0656 5.7344 12.8 12.8 12.8h132.352a12.8 12.8 0 0 0 12.7488-12.8v-93.3376a12.8 12.8 0 0 0-12.8-12.8z m-59.0336 61.9008v20.3776a1.6896 1.6896 0 0 1-1.6384 1.6896h-10.9568a1.6896 1.6896 0 0 1-1.6896-1.6896v-20.3776a15.872 15.872 0 1 1 14.336 0z m24.6272-61.952h-63.5392v-33.1776c0-17.6128 14.2848-31.8976 31.744-31.8976 17.5616 0 31.7952 14.2848 31.7952 31.8976v33.2288z" p-id="1507"></path></svg>